<svg width="19" height="27" viewBox="0 0 19 27" fill="none" xmlns="http://www.w3.org/2000/svg">
<g clip-path="url(#clip0_100_123)">
<path d="M5.23877 20.001C6.02654 20.9961 6.74352 22.0443 7.38451 23.1381C7.9318 24.1668 8.15995 24.8643 8.55991 26.1037C8.8052 26.7885 9.02689 26.9929 9.50353 26.9929C10.0229 26.9929 10.2586 26.6452 10.4406 26.1075C10.8187 24.937 11.1153 24.0437 11.5834 23.1996C12.5017 21.5701 13.6429 20.122 14.7642 18.7303C15.0678 18.3364 17.0304 16.0417 17.914 14.2311C17.914 14.2311 19 12.2421 19 9.46435C19 6.86602 17.929 5.06393 17.929 5.06393L14.8456 5.88247L12.973 10.7712L12.5098 11.4454L12.4171 11.5675L12.2939 11.7204L12.0777 11.9645L11.7686 12.2708L10.1011 13.6174L5.93227 16.0034L5.23877 20.001Z" fill="#34A853"/>
<path d="M0.936035 13.8967C1.9535 16.2004 3.91555 18.2254 5.24302 20.0026L12.2939 11.7235C12.2939 11.7235 11.3005 13.0113 9.49865 13.0113C7.49155 13.0113 5.8701 11.4225 5.8701 9.41925C5.8701 8.04549 6.70387 7.10174 6.70387 7.10174L1.91758 8.37302L0.936035 13.8967Z" fill="#FBBC04"/>
<path d="M12.3726 0.425748C14.7144 1.17417 16.7187 2.74539 17.9311 5.06232L12.296 11.7187C12.296 11.7187 13.1298 10.7579 13.1298 9.39269C13.1298 7.34275 11.3884 5.81133 9.50719 5.81133C7.72824 5.81133 6.70654 7.09696 6.70654 7.09696V2.90349L12.3726 0.425674V0.425748Z" fill="#4285F4"/>
<path d="M2.22754 3.36691C3.62619 1.70814 6.08729 0 9.48027 0C11.1264 0 12.3666 0.428395 12.3666 0.428395L6.70107 7.10063H2.68695L2.22754 3.36691Z" fill="#1A73E8"/>
<path d="M0.936047 13.8967C0.936047 13.8967 0 12.0797 0 9.44735C0 6.95945 0.97568 4.78474 2.22768 3.36691L6.7044 7.10122L0.936047 13.8967Z" fill="#EA4335"/>
</g>
<defs>
<clipPath id="clip0_100_123">
<rect width="19" height="27" fill="white"/>
</clipPath>
</defs>
</svg>
