<svg width="25" height="25" viewBox="0 0 25 25" fill="none" xmlns="http://www.w3.org/2000/svg">
<path d="M0 23.9253L6.00537 25L12.0483 17.4111C12.3404 17.0536 12.4999 16.6062 12.5 16.1445V1.10205C12.5001 1.00542 12.4811 0.909715 12.4441 0.820462C12.407 0.731208 12.3527 0.650172 12.2842 0.582027C12.2574 0.555117 12.2285 0.530457 12.1978 0.508297C12.1078 0.442412 12.0041 0.397847 11.8944 0.377978C11.7847 0.358109 11.672 0.363455 11.5647 0.393613C11.4573 0.42377 11.3583 0.477948 11.275 0.552045C11.1917 0.626142 11.1264 0.718214 11.084 0.821292L7.11767 8.9668C6.96286 9.34194 6.91503 9.75264 6.97949 10.1533L7.50683 14.8936C7.52388 14.999 7.51763 15.1068 7.48853 15.2096C7.45942 15.3123 7.40817 15.4075 7.33838 15.4883L0 23.9253Z" fill="#FFCD85"/>
<path d="M10.383 13.337L10.7164 10.2147C10.7548 9.85514 10.9248 9.5225 11.1937 9.28078C11.4626 9.03906 11.8114 8.90533 12.1729 8.90533H12.5V14.0932" fill="#FFCD85"/>
<path d="M10.7164 10.2147C10.7548 9.85514 10.9248 9.5225 11.1937 9.28078C11.4626 9.03906 11.8114 8.90533 12.1729 8.90533H12.5V8.96228C12.2202 9.04294 11.9707 9.20516 11.7835 9.42822C11.5962 9.65129 11.4797 9.92509 11.4488 10.2147L11.1155 13.337C11.0231 13.337 10.9318 13.3176 10.8474 13.28C10.7631 13.2424 10.6876 13.1875 10.6258 13.1188C10.5641 13.0501 10.5175 12.9692 10.489 12.8813C10.4606 12.7934 10.451 12.7006 10.4608 12.6087L10.7164 10.2147Z" fill="#FFC166"/>
<path d="M10.4297 20.1352C10.8792 20.4504 10.988 21.0703 10.6728 21.5198C10.3576 21.9692 9.7377 22.0781 9.28825 21.7628L4.28581 18.2545C3.83636 17.9393 3.72754 17.3194 4.04275 16.87C4.35796 16.4205 4.97784 16.3117 5.4273 16.6269L10.4297 20.1352Z" fill="#FFE966"/>
<path d="M4.04249 16.8705C4.18128 16.6725 4.3878 16.5321 4.62303 16.476C4.57616 16.67 4.58879 16.8736 4.65927 17.0603C4.72974 17.247 4.8548 17.4081 5.01815 17.5227L10.0213 21.03C10.1368 21.111 10.2683 21.1664 10.4069 21.1925C10.5456 21.2186 10.6882 21.2148 10.8252 21.1813C10.7875 21.3389 10.7119 21.4848 10.6048 21.6064C10.4978 21.728 10.3626 21.8216 10.211 21.8789C10.0595 21.9362 9.89623 21.9556 9.7355 21.9353C9.57476 21.915 9.42144 21.8557 9.28892 21.7625L4.28573 18.2552C4.17883 18.1802 4.08774 18.085 4.01766 17.9748C3.94758 17.8647 3.89989 17.7418 3.8773 17.6132C3.85471 17.4846 3.85767 17.3529 3.88602 17.2254C3.91436 17.098 3.96753 16.9774 4.04249 16.8705Z" fill="#FFE236"/>
<path d="M9.28862 21.7629C9.73807 22.0781 9.84689 22.698 9.53168 23.1474C9.21647 23.5969 8.59659 23.7057 8.14713 23.3905L3.1447 19.8821C2.69525 19.5669 2.58642 18.947 2.90164 18.4976C3.21685 18.0481 3.83673 17.9393 4.28618 18.2545L9.28862 21.7629Z" fill="#FFE966"/>
<path d="M2.90089 18.4981C3.03967 18.3001 3.2462 18.1598 3.48142 18.1037C3.43456 18.2976 3.44719 18.5012 3.51766 18.6879C3.58814 18.8746 3.7132 19.0358 3.87655 19.1504L8.87974 22.6577C8.99523 22.7387 9.12669 22.7941 9.26532 22.8202C9.40395 22.8462 9.54656 22.8424 9.68359 22.8089C9.65469 22.9302 9.60316 23.0448 9.5317 23.1469C9.38036 23.3627 9.14948 23.5096 8.88987 23.5552C8.63026 23.6008 8.36316 23.5414 8.14732 23.3901L3.14413 19.8828C3.03723 19.8079 2.94614 19.7126 2.87606 19.6025C2.80598 19.4923 2.75828 19.3694 2.7357 19.2409C2.71311 19.1123 2.71607 18.9805 2.74442 18.8531C2.77276 18.7256 2.82593 18.605 2.90089 18.4981Z" fill="#FFE236"/>
<path d="M12.5 1.10205V16.1445C12.5001 16.6062 12.6596 17.0536 12.9517 17.4111L19.2702 25L25 23.9889L17.6616 15.4883C17.5918 15.4075 17.5406 15.3123 17.5115 15.2096C17.4824 15.1068 17.4761 14.999 17.4932 14.8936L18.0205 10.1533C18.085 9.75264 18.0371 9.34194 17.8823 8.9668L13.916 0.821293C13.8736 0.718215 13.8083 0.626142 13.725 0.552045C13.6417 0.477949 13.5427 0.423771 13.4353 0.393613C13.328 0.363455 13.2153 0.358109 13.1056 0.377978C12.9959 0.397847 12.8922 0.442412 12.8022 0.508297C12.7715 0.530457 12.7426 0.555117 12.7158 0.582027C12.6473 0.650172 12.593 0.731208 12.5559 0.820462C12.5189 0.909715 12.4999 1.00542 12.5 1.10205Z" fill="#FFCD85"/>
<path d="M14.6172 13.337L14.2838 10.2147C14.2455 9.85514 14.0754 9.5225 13.8065 9.28078C13.5376 9.03906 13.1888 8.90533 12.8273 8.90533H12.5002V14.0932" fill="#FFCD85"/>
<path d="M13.8846 13.337L13.5512 10.2147C13.5203 9.92509 13.4038 9.65129 13.2166 9.42822C13.0293 9.20516 12.7799 9.04294 12.5 8.96228V8.90533H12.8271C13.1887 8.90533 13.5375 9.03906 13.8064 9.28078C14.0753 9.5225 14.2453 9.85514 14.2836 10.2147L14.5392 12.6087C14.5491 12.7006 14.5394 12.7934 14.511 12.8813C14.4826 12.9692 14.436 13.0501 14.3742 13.1188C14.3125 13.1875 14.237 13.2424 14.1526 13.28C14.0683 13.3176 13.9769 13.337 13.8846 13.337Z" fill="#FFC166"/>
<path d="M19.5725 16.6269C20.022 16.3117 20.6419 16.4205 20.9571 16.87C21.2723 17.3194 21.1635 17.9393 20.714 18.2545L15.7116 21.7629C15.2621 22.0781 14.6423 21.9693 14.327 21.5198C14.0118 21.0703 14.1207 20.4505 14.5701 20.1353L19.5725 16.6269Z" fill="#FFE966"/>
<path d="M14.5702 20.1346L19.5734 16.6273C19.7675 16.4914 20.0038 16.4294 20.2396 16.4524C20.4754 16.4754 20.6952 16.5819 20.8594 16.7527L16.0351 20.1346C15.9168 20.2163 15.8178 20.3229 15.745 20.4468C15.6722 20.5707 15.6274 20.7091 15.6136 20.8522C15.5998 20.9953 15.6174 21.1396 15.6652 21.2752C15.713 21.4107 15.7898 21.5342 15.8903 21.637L15.7114 21.7624C15.6045 21.8374 15.4839 21.8905 15.3565 21.9188C15.2291 21.9472 15.0973 21.9501 14.9687 21.9275C14.8402 21.9049 14.7173 21.8572 14.6072 21.7871C14.4971 21.7171 14.4018 21.626 14.3269 21.5191C14.252 21.4122 14.1988 21.2916 14.1705 21.1642C14.1422 21.0368 14.1392 20.905 14.1618 20.7764C14.1844 20.6479 14.2321 20.525 14.3022 20.4149C14.3723 20.3048 14.4634 20.2095 14.5702 20.1346Z" fill="#FFE236"/>
<path d="M20.7141 18.2545C21.1636 17.9393 21.7835 18.0481 22.0987 18.4976C22.4139 18.947 22.3051 19.5669 21.8556 19.8821L16.8532 23.3905C16.4037 23.7057 15.7839 23.5969 15.4686 23.1474C15.1534 22.698 15.2623 22.0781 15.7117 21.7629L20.7141 18.2545Z" fill="#FFE966"/>
<path d="M15.7114 21.7622L20.7145 18.2549C20.9086 18.1191 21.1449 18.057 21.3807 18.08C21.6165 18.103 21.8363 18.2095 22.0005 18.3804L17.1762 21.7622C17.0693 21.8372 16.9782 21.9324 16.9081 22.0426C16.838 22.1527 16.7904 22.2756 16.7678 22.4042C16.7452 22.5328 16.7481 22.6645 16.7765 22.792C16.8048 22.9194 16.858 23.04 16.933 23.1469C16.9627 23.1886 16.9956 23.228 17.0314 23.2647L16.8525 23.3901C16.6367 23.5414 16.3696 23.6008 16.11 23.5552C15.8503 23.5096 15.6195 23.3627 15.4681 23.1469C15.3932 23.04 15.34 22.9194 15.3116 22.792C15.2833 22.6645 15.2803 22.5328 15.3029 22.4042C15.3255 22.2756 15.3732 22.1527 15.4433 22.0426C15.5134 21.9324 15.6045 21.8372 15.7114 21.7622Z" fill="#FFE236"/>
<path d="M0.0889257 23.3311L2.85626 20.1235C2.65086 19.9565 2.49868 19.7333 2.4184 19.481C2.33812 19.2288 2.33323 18.9587 2.40434 18.7037C2.47545 18.4487 2.61946 18.2201 2.81869 18.0458C3.01792 17.8716 3.26369 17.7593 3.52585 17.7228C3.5226 17.7074 3.51929 17.6921 3.51657 17.6766C3.47001 17.4116 3.50307 17.1388 3.61155 16.8927C3.72004 16.6465 3.89909 16.438 4.12606 16.2936C4.35303 16.1492 4.61772 16.0753 4.88667 16.0813C5.15562 16.0874 5.41674 16.173 5.63702 16.3274L5.9446 16.5431L7.06104 15.2491C7.09598 15.2088 7.12163 15.1614 7.1362 15.1101C7.15077 15.0588 7.15389 15.005 7.14535 14.9523C7.1444 14.9463 7.14354 14.9402 7.14287 14.9341L6.61649 10.2023C6.54338 9.73766 6.59965 9.26185 6.77914 8.82707C6.782 8.82011 6.78508 8.81324 6.78839 8.80647L10.7503 0.670101C10.8188 0.508685 10.9249 0.36599 11.0598 0.253921C11.1946 0.141851 11.3543 0.0636548 11.5256 0.0258554C11.6968 -0.011944 11.8746 -0.00825083 12.0441 0.0366268C12.2136 0.0815045 12.3699 0.166265 12.5 0.283839C12.6301 0.166266 12.7864 0.0815045 12.9559 0.0366268C13.1255 -0.00825085 13.3032 -0.0119438 13.4745 0.025856C13.6457 0.0636558 13.8054 0.141852 13.9402 0.253922C14.0751 0.365992 14.1812 0.508686 14.2497 0.670101L18.2116 8.80647C18.2149 8.81324 18.218 8.82011 18.2208 8.82707C18.4003 9.26185 18.4566 9.73766 18.3835 10.2023L17.8571 14.9341C17.8564 14.9402 17.8556 14.9463 17.8546 14.9523C17.8461 15.0049 17.8492 15.0588 17.8638 15.1101C17.8783 15.1613 17.904 15.2088 17.9389 15.2491L19.0554 16.543L19.3629 16.3274C19.5832 16.173 19.8443 16.0874 20.1133 16.0813C20.3822 16.0753 20.6469 16.1492 20.8739 16.2936C21.1009 16.438 21.2799 16.6465 21.3884 16.8926C21.4969 17.1388 21.53 17.4116 21.4834 17.6766C21.4807 17.6921 21.4774 17.7075 21.4741 17.7228C21.7362 17.7594 21.982 17.8717 22.1812 18.046C22.3804 18.2202 22.5244 18.4488 22.5955 18.7038C22.6666 18.9587 22.6617 19.2288 22.5815 19.481C22.5012 19.7332 22.3491 19.9565 22.1437 20.1235L24.9111 23.3311C24.9425 23.3675 24.9664 23.4097 24.9815 23.4554C24.9966 23.5011 25.0025 23.5492 24.999 23.5972C24.9955 23.6452 24.9825 23.692 24.9609 23.7349C24.9393 23.7779 24.9094 23.8162 24.873 23.8476C24.8366 23.879 24.7944 23.9029 24.7487 23.918C24.703 23.9331 24.6548 23.9391 24.6069 23.9355C24.5589 23.932 24.5121 23.919 24.4692 23.8974C24.4262 23.8758 24.3879 23.8459 24.3565 23.8095L21.5435 20.5489L18.0647 22.9876L19.2391 24.3996C19.3011 24.4743 19.331 24.5706 19.3221 24.6672C19.3132 24.7639 19.2662 24.8531 19.1916 24.9152C19.1169 24.9773 19.0207 25.0072 18.924 24.9983C18.8273 24.9895 18.7381 24.9426 18.6759 24.868L17.4629 23.4095L17.0628 23.69C16.8425 23.8444 16.5814 23.9301 16.3125 23.9361C16.0435 23.9421 15.7788 23.8682 15.5518 23.7238C15.3249 23.5794 15.1458 23.3709 15.0373 23.1248C14.9288 22.8786 14.8958 22.6058 14.9424 22.3408C14.9451 22.3252 14.9484 22.3098 14.9517 22.2943C14.6813 22.2566 14.4286 22.1383 14.2265 21.9549C14.0243 21.7715 13.882 21.5315 13.8181 21.2661C13.7543 21.0007 13.7718 20.7222 13.8684 20.4669C13.965 20.2116 14.1362 19.9913 14.3598 19.8347L14.4425 19.7767L12.668 17.6428C12.6073 17.5683 12.5512 17.4902 12.5001 17.4088C12.4492 17.4896 12.3935 17.5672 12.3332 17.6412L10.5902 19.7997L10.6402 19.8347C10.8639 19.9913 11.0353 20.2115 11.132 20.4669C11.2287 20.7222 11.2463 21.0008 11.1824 21.2662C11.1185 21.5317 10.9761 21.7718 10.7739 21.9551C10.5716 22.1385 10.3187 22.2567 10.0483 22.2944C10.0516 22.3098 10.0549 22.3252 10.0576 22.3408C10.104 22.6057 10.0708 22.8784 9.96223 23.1245C9.85369 23.3705 9.67467 23.5789 9.44778 23.7232C9.22089 23.8676 8.9563 23.9415 8.68744 23.9356C8.41859 23.9296 8.15751 23.8442 7.93719 23.69L7.62553 23.4715L6.50119 24.8639C6.44018 24.9394 6.35164 24.9877 6.25506 24.9979C6.15848 25.0082 6.06177 24.9797 5.98621 24.9187C5.91065 24.8577 5.86242 24.7691 5.85214 24.6726C5.84185 24.576 5.87036 24.4793 5.93137 24.4037L7.02442 23.0501L3.45653 20.5489L0.643489 23.8095C0.612073 23.8459 0.573792 23.8758 0.530833 23.8974C0.487874 23.919 0.441076 23.932 0.393113 23.9355C0.345151 23.9391 0.296963 23.9331 0.251299 23.918C0.205635 23.9029 0.163392 23.879 0.126979 23.8476C0.0905657 23.8162 0.0606972 23.7779 0.0390783 23.7349C0.0174594 23.692 0.00451242 23.6452 0.000979006 23.5972C-0.0025544 23.5492 0.00339492 23.5011 0.0184849 23.4554C0.0335749 23.4097 0.0575096 23.3675 0.0889257 23.3311ZM15.768 22.9366C15.8638 23.0727 16.0096 23.1654 16.1735 23.1941C16.3374 23.2229 16.506 23.1856 16.6424 23.0902L21.6456 19.5829C21.7817 19.4872 21.8742 19.3415 21.9029 19.1776C21.9316 19.0138 21.8941 18.8452 21.7986 18.709C21.7032 18.5728 21.5575 18.48 21.3937 18.4511C21.2299 18.4222 21.0613 18.4595 20.9249 18.5548L20.9245 18.5551L20.5066 18.848C20.5054 18.8489 20.5041 18.8498 20.5029 18.8506L16.4661 21.6805C16.4624 21.6831 16.4587 21.6858 16.455 21.6882L15.9214 22.0623C15.7852 22.1579 15.6925 22.3037 15.6637 22.4677C15.6349 22.6317 15.6725 22.8003 15.768 22.9366ZM14.6266 21.309C14.7223 21.4451 14.8681 21.5378 15.032 21.5665C15.1959 21.5953 15.3645 21.558 15.5009 21.4626L20.0906 18.2452C20.0926 18.2438 20.0945 18.2424 20.0965 18.241L20.5041 17.9554C20.64 17.8596 20.7324 17.7139 20.761 17.5501C20.7896 17.3863 20.7521 17.2179 20.6566 17.0817C20.5612 16.9456 20.4157 16.8529 20.2519 16.8239C20.0882 16.7949 19.9197 16.8321 19.7834 16.9272L19.209 17.3298C19.2058 17.3322 19.2026 17.3344 19.1993 17.3366L14.7802 20.4345C14.7127 20.4818 14.6552 20.542 14.6109 20.6115C14.5666 20.6811 14.5365 20.7587 14.5222 20.8399C14.508 20.9211 14.5098 21.0043 14.5277 21.0848C14.5456 21.1653 14.5792 21.2415 14.6266 21.309ZM12.8662 8.54001C13.3115 8.5487 13.7383 8.71973 14.0664 9.02096C14.3944 9.32218 14.6012 9.73286 14.6478 10.1758L14.9811 13.2982C14.9912 13.3947 14.9627 13.4912 14.9017 13.5667C14.8407 13.6421 14.7522 13.6903 14.6558 13.7006C14.5593 13.7108 14.4627 13.6824 14.3871 13.6216C14.3116 13.5607 14.2633 13.4724 14.2528 13.3759L13.9194 10.2535C13.8918 9.99041 13.77 9.74616 13.5764 9.56581C13.3829 9.38546 13.1306 9.28118 12.8662 9.2722V16.1445C12.8664 16.5206 12.996 16.8852 13.2332 17.177L15.0442 19.3549L18.4526 16.9656L17.3843 15.7275C17.2805 15.6075 17.2041 15.4665 17.1602 15.3141C17.1163 15.1617 17.106 15.0016 17.1301 14.8449L17.6565 10.1129C17.6572 10.1069 17.658 10.1011 17.6589 10.0952C17.7121 9.76494 17.6737 9.42639 17.5479 9.11641L13.5868 0.981619C13.5835 0.974895 13.5804 0.968029 13.5776 0.961114C13.5448 0.882141 13.4857 0.816949 13.4104 0.776631C13.335 0.736313 13.248 0.72336 13.1641 0.739976C13.0802 0.756592 13.0047 0.801751 12.9504 0.867768C12.8961 0.933785 12.8663 1.01658 12.8662 1.10207V8.54001ZM11.7647 17.1794C12.0031 16.8872 12.1334 16.5217 12.1338 16.1445V9.2722C11.8694 9.28118 11.6171 9.38546 11.4236 9.56581C11.23 9.74616 11.1082 9.99041 11.0805 10.2535L10.7472 13.3759C10.7367 13.4724 10.6884 13.5607 10.6129 13.6216C10.5373 13.6824 10.4407 13.7108 10.3442 13.7006C10.2478 13.6903 10.1593 13.6421 10.0983 13.5667C10.0373 13.4912 10.0087 13.3947 10.0189 13.2982L10.3522 10.1758C10.3988 9.73286 10.6056 9.32218 10.9336 9.02096C11.2617 8.71973 11.6885 8.5487 12.1338 8.54001V1.10207C12.1338 1.0165 12.1041 0.933586 12.0498 0.867463C11.9955 0.80134 11.9199 0.756104 11.836 0.739473C11.7521 0.722842 11.665 0.735844 11.5895 0.776263C11.5141 0.816682 11.4551 0.882014 11.4224 0.961114C11.4196 0.968029 11.4165 0.974895 11.4132 0.981619L7.4521 9.11646C7.32627 9.42642 7.28788 9.76495 7.34109 10.0952C7.342 10.1011 7.34281 10.1069 7.34348 10.1129L7.86991 14.8449C7.89398 15.0017 7.88371 15.1618 7.83981 15.3142C7.79591 15.4666 7.71943 15.6076 7.61566 15.7275L6.5474 16.9656L9.98911 19.3783L11.7647 17.1794ZM10.3734 21.309C10.4208 21.2415 10.4543 21.1653 10.4723 21.0848C10.4902 21.0044 10.492 20.9211 10.4778 20.8399C10.4635 20.7587 10.4334 20.6811 10.3891 20.6115C10.3449 20.542 10.2873 20.4818 10.2198 20.4345L5.80016 17.3363C5.79725 17.3343 5.79438 17.3323 5.79152 17.3302L5.21659 16.9272C5.14909 16.8799 5.07292 16.8463 4.99244 16.8284C4.91197 16.8105 4.82875 16.8087 4.74755 16.8229C4.66636 16.8372 4.58876 16.8673 4.51921 16.9116C4.44965 16.9559 4.38949 17.0134 4.34217 17.0809C4.29485 17.1484 4.26128 17.2246 4.24339 17.305C4.2255 17.3855 4.22364 17.4687 4.23791 17.5499C4.25219 17.6311 4.28231 17.7087 4.32657 17.7783C4.37082 17.8478 4.42835 17.908 4.49585 17.9553L9.00958 21.1195C9.01243 21.1213 9.01516 21.1234 9.01795 21.1253L9.49907 21.4626C9.63543 21.558 9.80408 21.5954 9.968 21.5666C10.1319 21.5378 10.2777 21.4452 10.3734 21.309ZM3.09643 19.1775C3.11049 19.2588 3.14053 19.3365 3.18482 19.406C3.22911 19.4756 3.28677 19.5357 3.35445 19.5829L8.35757 23.0902C8.49389 23.1856 8.66252 23.223 8.8264 23.1942C8.99028 23.1653 9.136 23.0726 9.23155 22.9364C9.3271 22.8002 9.36466 22.6316 9.33597 22.4677C9.30729 22.3038 9.2147 22.1579 9.07856 22.0623L4.07543 18.555L4.07517 18.5548L4.0751 18.5548C3.97342 18.4835 3.85291 18.444 3.72879 18.4413C3.60467 18.4385 3.48252 18.4726 3.37777 18.5392C3.27303 18.6059 3.1904 18.7021 3.14032 18.8157C3.09024 18.9293 3.07497 19.0552 3.09643 19.1775Z" fill="#313440"/>
</svg>
